<svg width="80" height="80" viewBox="0 0 80 80" fill="none" xmlns="http://www.w3.org/2000/svg">
<path fill-rule="evenodd" clip-rule="evenodd" d="M13.9322 26.9368V28.4541C12.0339 28.4541 7.94068 28.6936 6.81356 28.514C1.73164 27.6755 2.95763 20.4285 7.9209 20.4285C9.16667 20.4285 10.2542 21.0274 10.887 21.6862C12.4096 23.2833 11.5791 22.1054 14.5254 22.1054C15.4153 22.1054 15.9492 22.5047 16.4831 22.8641C16.048 23.5229 15.5932 24.1019 15.0593 24.7806C14.5452 25.3995 13.9322 25.8587 13.9322 26.9368ZM17.5311 25.4195C18.0452 24.6409 18.6582 23.9621 19.2316 23.1835L23.661 17.4937C24.6299 16.2959 24.9463 15.9166 26.0734 17.3939C26.3701 17.7732 26.6271 18.0927 26.9435 18.492L32.2627 25.2798C27.1808 25.2598 22.5932 25.4195 17.5311 25.4195ZM39.935 39.9734V35.2619H41.5961V40.4326H40.3898C40.0537 40.4326 39.935 40.3328 39.935 39.9734ZM36.0396 35.2818H37.7006V40.4526H36.0396V35.2818ZM16.3446 45.6033V43.6269L33.7853 43.4672V45.4436L16.3446 45.6033ZM62.339 47.2604L62.4972 51.2133C61.6667 50.9937 61.3503 49.8557 60.5396 49.8557C59.6893 49.8557 59.3333 50.3748 59.3333 51.0735C59.3333 52.3912 62.4972 54.1281 62.4972 55.0265V58.061C60.7768 58.061 57.9294 56.7434 56.9209 55.0265C55.2006 52.0718 54.2316 51.373 54.2316 48.3384C54.2316 45.6632 55.4774 43.3474 56.822 41.9898C63.3079 35.5014 73.1751 40.6522 73.1751 48.019C73.1751 51.2532 72.5424 52.8903 70.6441 55.1862C69.5565 56.4839 66.7288 58.0411 64.7514 58.0411C64.7514 50.5145 64.0791 52.3712 67.0452 49.4365C68.6271 47.8793 68.0339 46.8212 66.5509 46.8212C66.0367 46.8212 65.1864 48.039 64.7514 48.3384C64.7514 47.0408 64.9096 46.1623 63.9802 45.7631C63.0311 45.3438 62.339 46.1623 62.339 47.2604ZM36.0396 42.7085C38.3333 42.7085 44.5028 42.4091 46.1638 43.1078C47.9633 43.8665 48.6356 45.5634 49.6836 47.3003L59.2542 63.4514C60.0057 64.3498 61.3305 65.3679 62.517 65.4678V68.8018C60.5791 68.8018 58.5028 69.0214 57.1384 66.9451C56.7825 66.3861 56.5057 65.9469 56.1695 65.348L53.2034 60.297C51.7203 57.8015 46.5989 48.3784 45.096 47.2404C42.6638 45.3638 39.7373 45.8828 36.0791 45.8828V42.7085H36.0396ZM21.9011 47.8793H27.774V50.3149H21.9011V47.8793ZM36.0396 48.3384C38.6497 48.3384 41.9322 47.9392 43.4944 48.9973C44.3051 49.5563 47.8051 55.7651 48.517 56.983C49.1497 58.101 49.7825 59.2788 50.4746 60.317C45.6695 59.179 40.8249 61.5747 38.5113 65.3879C37.9576 66.2863 37.1271 67.8036 37.0876 69.1212H36.178V56.983C36.178 53.9284 36.0396 51.393 36.0396 48.3384ZM16.4831 54.2479V47.8793H19.4887V55.6254C19.4887 58.5801 19.6469 61.0157 19.6469 63.9704C19.0734 63.9305 19.1723 63.8107 18.4407 63.8107C18.1638 60.5765 17.8672 59.2389 17.1158 56.4839C16.8983 55.7252 16.4831 55.0065 16.4831 54.2479ZM21.9011 52.7306H27.774V55.1662H21.9011V52.7306ZM23.2458 60.0175H21.9011V57.5819L27.4576 57.4222C28.1299 57.4222 27.9124 58.2008 27.9124 59.8578C26.1723 59.8778 25.0057 60.0175 23.2458 60.0175ZM59.9463 60.0175C60.8559 60.0375 61.548 60.4567 62.4972 60.4767V63.0521C61.7853 62.6728 61.4492 62.533 60.9746 61.8542C60.7373 61.5548 60.0254 60.3769 59.9463 60.0175ZM12.4294 53.03C13.517 53.03 14.5847 56.2443 14.9407 57.3423C15.4548 58.9395 15.8898 61.1954 16.048 63.0521C14.5254 62.6927 14.1893 62.3733 12.5876 62.7526C11.9746 61.5747 10.5706 60.7762 9.28531 60.4767C9.34463 60.317 10.7288 53.03 12.4294 53.03ZM64.7514 60.4767C68.8644 60.4767 73.9266 56.3042 74.678 53.03C75.0339 53.1099 75.291 53.1898 75.5876 53.3295C75.5876 55.9648 75.5876 58.6001 75.5876 61.2154C75.5876 63.9505 75.7458 66.1865 75.7458 68.9615H74.5396C74.5396 62.533 75.0141 63.3515 71.3757 63.3515H64.9096C64.8898 62.1737 64.7514 61.6346 64.7514 60.4767ZM21.9011 65.6275V62.2934H27.9124V69.1212H24.3136C23.404 69.1212 23.226 69.2809 22.3559 69.2809C22.3559 66.1266 21.9011 66.7255 21.9011 65.6275ZM3.84746 66.5458C3.84746 63.6311 7.16949 61.1954 10.2542 63.5712C10.7684 63.9704 11.3814 65.328 11.9548 65.328C13.0028 65.328 14.0508 64.3098 15.6723 65.8271C16.3446 66.466 16.7006 66.2464 17.5706 66.1266C20.2203 65.7273 20.6158 69.2809 19.4689 69.2809H5.21186C4.51977 69.2809 3.84746 67.6439 3.84746 66.5458ZM30.1667 65.6275V47.8593H33.7655V69.1012H30.3051C30.3249 67.7636 30.1667 67.025 30.1667 65.6275ZM64.8898 65.6275H72.1073V67.4442C72.1073 68.2029 72.2458 68.123 72.2655 68.8018H64.8898V65.6275ZM47.3107 69.1212H39.5C39.5396 67.4642 41.2599 65.5676 42.3079 64.5294C44.4831 62.3933 48.3588 61.9341 51.2655 63.0122C51.7401 63.1918 52.0763 63.1918 52.3729 63.5712L55.5763 68.9815C52.6497 68.9815 50.2373 69.1212 47.3107 69.1212ZM1 73.8328V71.457C1.0791 70.7184 1.37571 70.1394 2.20621 69.5804C2.08757 69.0414 1.87006 68.7619 1.71186 68.103C0.70339 63.7109 4.12429 60.3968 7.0113 60.317C7.0113 58.4603 8.94915 50.5944 12.4294 50.5944C13.2599 50.5944 13.4379 50.8939 14.0904 51.0536V37.6975C14.1497 37.2383 14.5254 36.7792 14.9802 36.7792C16.7797 36.7792 16.3249 38.4362 16.3249 41.1713H33.6073V27.6555H16.3446V33.5849C16.3446 33.9442 15.8107 34.5032 15.435 34.5032C13.6356 34.5032 13.9322 33.0658 13.9322 30.8697H6.87288C5.31073 30.8697 3.53107 29.7917 2.77966 28.9332C-1.21469 24.3814 2.79943 17.0346 9.22599 18.1725C10.3927 18.3722 11.935 19.1508 12.4492 19.9294C14.209 19.0709 16.5621 20.0092 18.0057 20.9875L22.5537 15.098C23.0678 14.5191 23.7401 14 24.7684 14C27.0226 14 27.4181 15.3975 28.6441 16.775L35.6045 25.5193C36.2966 26.4976 36.0396 31.6483 36.0396 32.966C39.065 32.966 41.5763 32.8063 44.6017 32.8063C45.5904 32.8063 46.8559 32.6665 46.8559 34.0241C46.8559 35.5214 45.3729 35.2419 43.8503 35.2419C43.8701 35.9207 44.0085 35.8408 44.0085 36.5995V40.3927C45.4124 40.3927 46.1638 40.4326 47.5283 41.0914C49.4266 42.0297 51.5621 45.3039 51.839 46.4618H52.1356C52.1356 45.1242 53.0057 43.3274 53.5593 42.429C57.5734 35.721 66.5311 34.5432 72.1864 40.213C73.6695 41.6904 74.8559 43.8864 75.291 46.0226C75.7655 48.3784 75.6469 48.4782 75.4492 50.7142C76.6158 51.2732 78 50.9138 78 52.8304V73.4734C78 74.1522 77.4859 74.7911 77.0508 75.0905C76.3983 75.5497 75.8842 75.4499 74.8559 75.4499C73.8079 75.4299 73.4322 75.6096 72.4633 75.6096H49.4463C46.0254 75.6096 43.0198 75.7693 39.5198 75.7693C32.6977 75.7693 25.8955 75.7693 19.0734 75.7693C17.2542 75.7693 15.9689 75.929 14.1102 75.929C12.4096 75.929 10.709 75.929 8.9887 75.929C6.95198 75.929 2.95763 76.2884 1.85028 75.39C1.41525 75.0706 1 74.5116 1 73.8328ZM3.25424 73.5333V71.7166C15.4746 71.7166 27.2401 71.5569 39.4802 71.5569L66.6893 71.3971C69.8927 71.3971 72.5819 71.2374 75.7062 71.2374V73.2139C51.4633 73.2338 27.5367 73.5333 3.25424 73.5333Z" fill="black"/>
<path fill-rule="evenodd" clip-rule="evenodd" d="M42 16.3912C42 18.4615 43.7149 20 45.4494 20H51.7373C52.6637 20 53.3339 19.1073 52.8805 18.3285C52.4075 17.5118 51.3036 17.6828 50.0816 17.6828L45.272 17.7018C43.5769 17.2459 44.385 14.4348 46.3167 13.922C48.5638 13.3332 47.5782 14.0739 48.485 11.8137C48.8398 10.921 49.5099 9.9333 50.2195 9.43946C52.0724 8.18587 54.3392 7.86298 56.4088 8.83166C57.6506 9.42047 58.4391 10.3512 59.0107 11.5098C59.3458 12.2126 59.2867 12.9343 59.7597 13.3902C60.8241 14.4348 61.6323 12.7824 63.4851 15.0046C64.037 15.6694 64.3524 15.6694 65.4957 15.6694C66.4024 15.6694 67.2894 15.6694 68.1961 15.6694C68.5903 16.2582 68.6494 15.8404 68.6494 16.828C68.6494 17.3029 68.0384 17.6258 67.585 17.6828C67.0725 17.7397 66.0673 17.6828 65.4957 17.6828C64.2539 17.6828 56.1132 17.5878 55.5021 17.7397C54.0435 18.1006 54.3194 20 55.8963 20L67.2894 19.867C72.3551 19.905 72.02 13.4471 67.585 13.3522C65.6139 13.3142 65.3774 13.6561 64.6087 12.8963C62.8741 11.1489 61.8294 12.1746 61.2972 11.0349C60.351 9.0216 59.3261 7.57809 56.9016 6.60941C52.4666 4.82399 47.6571 7.16021 46.297 11.0349C46.0014 11.8897 46.3956 11.4908 45.272 11.9087C43.4783 12.5924 42 14.3778 42 16.3912Z" fill="black"/>
</svg>
