<svg width="81" height="80" viewBox="0 0 81 80" fill="none" xmlns="http://www.w3.org/2000/svg">
<path d="M70.8535 3.02509C72.3403 3.67813 72.8695 4.80813 72.8444 6.41542C72.7939 16.7873 72.8191 27.1842 72.8191 37.556C72.8191 38.8118 72.5419 39.2889 71.7859 39.2889C71.0299 39.2889 70.7024 38.7867 70.7024 37.5059V6.21457C70.7024 5.13458 70.6771 5.0844 69.5935 5.0844H11.3566C10.3235 5.0844 10.2982 5.13473 10.2982 6.16439C10.2982 16.6115 10.2982 27.0588 10.2982 37.5059C10.2982 37.8323 10.273 38.1587 10.1974 38.4853C10.0463 39.0126 9.64299 39.2638 9.13905 39.2135C8.60986 39.1633 8.28232 38.8369 8.20658 38.3094C8.1815 38.0835 8.18149 37.8323 8.18149 37.6064C8.18149 27.2093 8.20658 16.7873 8.15625 6.39033C8.15625 4.78305 8.66019 3.65288 10.1471 3" fill="black"/>
<path d="M10.2097 69.7535H13.6721V12.6891C13.6721 11.1387 13.8996 10.8887 15.4665 10.8887H65.5586C67.1003 10.8887 67.353 11.1637 67.353 12.6891V68.7783V69.7786H70.8155V68.9284C70.8155 61.3014 70.8155 53.6744 70.8155 46.0476C70.8155 45.7724 70.8155 45.4974 70.8659 45.2224C70.9923 44.6722 71.3462 44.347 71.9275 44.3971C72.5087 44.4471 72.8626 44.7972 72.9131 45.3974C72.9385 45.5974 72.9131 45.8224 72.9131 46.0225V68.9033V69.7786C73.1406 69.8036 73.3175 69.8285 73.4945 69.8285C74.9603 69.8785 75.8449 70.6537 75.9459 72.079C76.0218 73.0293 76.0218 74.0047 75.9207 74.9548C75.8197 76.3553 74.9098 77.1304 73.4691 77.1304C67.2014 77.1304 60.9335 77.1304 54.6404 77.1304C39.0215 77.1304 23.4024 77.1054 7.78336 77.1554C6.16582 77.1554 4.92742 76.2802 5.00331 74.4047C5.02855 73.6295 4.97806 72.8543 5.02855 72.1041C5.12969 70.6538 5.98895 69.8785 7.45486 69.8285C7.60649 69.8285 7.78336 69.8285 8.06136 69.8285V68.9784V46.0225C8.06136 45.7975 8.03612 45.5474 8.06136 45.3224C8.13725 44.7723 8.46574 44.4221 9.02175 44.3721C9.55252 44.3221 9.93166 44.6222 10.058 45.1224C10.1338 45.3974 10.1338 45.7225 10.1338 46.0225C10.1338 53.6495 10.1338 61.2765 10.1338 68.9284M57.547 69.7535C57.547 69.7285 57.547 69.6784 57.547 69.6535C55.2218 68.7783 52.8966 67.9281 50.5462 67.0529C49.1055 66.5278 48.8275 66.1276 48.8275 64.6273C48.8275 49.9736 48.8275 35.3198 48.8023 20.6662C48.8023 19.4909 49.2319 18.7657 50.3187 18.2656C53.8064 16.6651 57.2436 15.0147 60.7062 13.3893C60.9083 13.2893 61.1104 13.1643 61.4138 13.0143H19.4849C19.8893 13.1892 20.0916 13.3143 20.319 13.3893C23.8068 15.0147 27.2945 16.6651 30.7823 18.2905C31.7427 18.7406 32.1976 19.3908 32.1976 20.4661C32.1723 35.2448 32.1976 49.9985 32.1976 64.7772C32.1976 66.0276 31.8437 66.5278 30.6307 66.9779C29.6197 67.3529 28.6088 67.728 27.5977 68.103C26.2331 68.6283 24.8429 69.1284 23.4782 69.6286C23.4782 69.6535 23.5036 69.7035 23.5036 69.7285H57.547V69.7535ZM65.23 13.6394C64.952 13.7643 64.6994 13.8394 64.4971 13.9395C60.2259 15.9399 55.9547 17.9655 51.6835 19.941C51.1275 20.1909 50.9504 20.4661 50.9504 21.0912C50.9758 30.8438 50.9758 40.5962 50.9758 50.3486C50.9758 54.9999 50.9758 59.676 50.9504 64.3522C50.9504 64.8523 51.1275 65.0773 51.5823 65.2274C55.5503 66.6778 59.5182 68.1781 63.4862 69.6035C64.017 69.8036 64.6487 69.7535 65.2554 69.8285V13.6394H65.23ZM15.7952 69.9036C16.528 69.7535 17.2104 69.7285 17.8169 69.5035C21.7091 68.103 25.5507 66.6278 29.4428 65.2274C29.8977 65.0524 30.0999 64.8773 30.0999 64.3522C30.0745 49.8735 30.0745 35.3698 30.0999 20.8912C30.0999 20.4661 29.9988 20.2411 29.5692 20.041C25.1463 17.9904 20.7233 15.8899 16.3005 13.8143C16.1489 13.7394 15.972 13.7143 15.7952 13.6394V69.9036ZM40.5125 71.854H8.26363C8.06136 71.854 7.88449 71.854 7.70762 71.854C7.32848 71.8291 7.15161 71.9792 7.15161 72.3793C7.17686 72.9295 7.15161 73.4545 7.15161 73.9796C7.15161 74.9798 7.15161 74.9798 8.18774 74.9798H72.8374C73.0142 74.9798 73.1659 74.9548 73.3429 74.9798C73.7219 75.0049 73.8989 74.8548 73.8989 74.4547C73.8735 73.8796 73.8989 73.3294 73.8989 72.7792C73.8989 71.8289 73.8989 71.8291 72.9385 71.8291H40.5125V71.854Z" fill="black"/>
<path d="M63.3519 52.7493C63.3519 56.108 63.3028 59.4924 63.3764 62.8511C63.401 64.3524 62.4445 64.8358 61.2673 64.3524C59.2072 63.4617 57.1228 62.6474 55.0383 61.7823C54.1063 61.4007 53.9102 61.0954 53.9102 60.0012C53.9102 54.2251 53.9102 48.4744 53.9102 42.6983C53.9102 41.4006 54.3026 40.968 55.5288 40.9426C57.6378 40.8916 59.7468 40.8662 61.8314 40.8662C62.8858 40.8662 63.3273 41.3242 63.3273 42.4184C63.3519 45.879 63.3519 49.3141 63.3519 52.7493ZM55.9456 43.0546V43.9961C55.9456 48.9833 55.9701 53.9706 55.921 58.958C55.921 59.6705 56.1173 60.0012 56.7549 60.2303C58.2509 60.7901 59.7224 61.4261 61.2673 62.0623V43.0546H55.9456Z" fill="black"/>
<path d="M63.3505 28.2718C63.3505 31.4333 63.3505 34.5708 63.3505 37.7323C63.3505 38.9298 62.9582 39.2891 61.7566 39.2891C59.697 39.2891 57.6372 39.2891 55.5776 39.2651C54.3761 39.2651 53.9102 38.8101 53.9102 37.6604C53.9102 32.4871 53.9102 27.2898 53.9102 22.1164C53.9102 21.3501 54.2044 20.8711 54.9155 20.5358C57.0242 19.5298 59.1329 18.5238 61.2172 17.446C62.4677 16.7994 63.424 17.494 63.3751 18.7633C63.3014 21.9249 63.3505 25.0864 63.3505 28.2718ZM61.2662 19.6735C60.9966 19.7933 60.8003 19.8651 60.6042 19.9608C59.2311 20.6316 57.8825 21.3261 56.4848 21.9488C56.0435 22.1404 55.8963 22.4039 55.8963 22.8589C55.9209 27.4335 55.8963 32.0319 55.8963 36.6066V37.2533H61.2418V19.6735H61.2662Z" fill="black"/>
<path d="M17.6706 52.7126C17.6706 49.3244 17.6706 45.9105 17.6706 42.5222C17.6706 41.2739 18.0874 40.8662 19.2891 40.8662C21.3736 40.8916 23.4582 40.9172 25.5182 40.9426C26.6953 40.9681 27.0877 41.4012 27.0877 42.573C27.0877 48.4072 27.0877 54.2668 27.0877 60.1008C27.0877 60.9415 26.7444 61.451 25.9841 61.7568C23.8751 62.5974 21.766 63.4636 19.6815 64.3552C18.6269 64.8139 17.5969 64.4062 17.6215 62.8776C17.7195 59.4894 17.6706 56.1011 17.6706 52.7126ZM19.7796 43.0571V62.0624C21.3736 61.4001 22.8941 60.7377 24.4147 60.1517C24.9296 59.9479 25.1013 59.7186 25.1013 59.1326C25.0767 54.0375 25.0767 48.9167 25.0767 43.796C25.0767 43.5667 25.0522 43.3375 25.0522 43.0317H19.7796V43.0571Z" fill="black"/>
<path d="M17.646 28.1628C17.646 25.0282 17.6949 21.8697 17.6216 18.7113C17.5971 17.5148 18.5266 16.7971 19.7741 17.443C21.8776 18.5199 24.0057 19.5248 26.1338 20.5538C26.7943 20.8648 27.0878 21.3193 27.0878 22.0372C27.0878 27.2535 27.0878 32.4936 27.0878 37.7099C27.0878 38.8346 26.623 39.2651 25.4489 39.2651C23.3697 39.2891 21.2907 39.2891 19.2115 39.2891C18.0864 39.2891 17.6705 38.9062 17.6705 37.8055C17.646 34.5993 17.646 31.369 17.646 28.1628ZM24.9597 37.2552C25.0086 37.1596 25.033 37.1116 25.033 37.0638C25.033 32.2543 25.0575 27.4209 25.033 22.6115C25.033 22.4201 24.7885 22.133 24.5928 22.0372C23.223 21.3433 21.8287 20.6734 20.4346 20.0035C20.2143 19.9077 19.9942 19.8119 19.7252 19.6923V37.2792H24.9597V37.2552Z" fill="black"/>
</svg>
