<svg width="80" height="80" viewBox="0 0 80 80" fill="none" xmlns="http://www.w3.org/2000/svg">
<path fill-rule="evenodd" clip-rule="evenodd" d="M4.75032 12.172V19.3097C4.75032 21.8776 5.25916 23.1919 6.37856 24.668C7.15197 25.6992 9.2076 27.2763 10.8969 27.2965V33.9893C9.37042 32.9783 9.7164 32.5335 7.68112 32.5335C6.76524 32.5335 5.72725 33.6051 5.13702 34.0702C4.64855 34.4544 3 35.6676 3 36.1731V56.2514C3 57.4039 4.95385 57.1209 5.64584 57.1209C6.86701 57.1209 8.08822 57.1209 9.30938 57.1209C9.7775 59.0822 14.0719 62.1556 16.3311 62.2163L12.4233 65.8963C11.6703 66.6242 8.57664 69.091 8.57664 69.7785C8.57664 70.7895 9.67571 71.5578 10.8765 70.3244L12.8507 68.5046C13.2578 68.08 13.4613 67.9991 13.8684 67.6352C14.5807 67.0084 14.9674 66.5029 15.7612 65.8761C16.5346 65.2492 16.8602 64.6022 17.7965 64.1169C17.7965 65.4312 17.7965 66.7455 17.7965 68.0396C17.7965 69.3134 17.7151 70.9512 18.977 70.9512C19.6893 70.9512 20.1574 70.4862 20.1574 69.7785V62.3578C21.8874 62.3578 23.882 61.3064 24.9607 60.5785C25.6323 60.1134 26.1615 59.709 26.711 59.1226C27.0977 58.7182 27.9118 57.6668 28.0543 57.1209H41.9756L40.673 62.9644C40.3881 64.4 39.4925 67.9183 39.4925 69.2123C39.4925 71.4567 42.6065 70.9512 44.0312 70.9512C45.578 70.9512 45.8833 69.2932 46.0461 68.444L48.4274 57.1209H56.9145L57.7083 60.8413C58.0543 62.3376 59.3569 69.273 59.8453 70.0616C60.578 71.2748 62.2062 70.931 64.0991 70.931C64.6689 70.931 65.2592 70.5064 65.5238 70.1627C65.9512 69.637 65.9919 69.0708 65.8697 68.444C65.6052 67.1297 65.3406 66.0176 65.076 64.7033C64.8521 63.5508 64.5061 62.1354 64.2619 61.0031C64.0991 60.2954 63.9973 59.7899 63.8548 59.0822C63.7124 58.4756 63.5088 57.687 63.5088 57.1006H77.1248C77.4708 57.1006 78 56.5749 78 56.2312V36.1528C78 35.7484 77.3691 35.2834 77.0638 35.0408C75.0489 33.504 73.2985 31.1181 70.6323 33.4838C70.0828 33.9691 69.5129 34.4342 68.9023 34.8386C67.3759 34.0298 65.4423 30.8957 62.5726 33.4838C62.2062 33.8276 61.1479 34.7172 60.7001 34.8386C60.3948 34.6364 60.232 34.4544 59.886 34.1915C58.2578 32.9177 58.2171 32.5133 56.3039 32.5133C55.4288 32.5133 54.4111 33.5647 53.8209 33.9691V11.4037L59.4586 18.1774C61.2293 20.4016 60.863 20.3611 60.863 23.9198H58.2171C55.9986 23.9198 56.3853 26.2451 57.9322 26.2451H71.1208C74.9471 26.2451 74.4993 19.4512 70.8562 16.7619C69.981 16.1149 69.0041 15.7307 68.0475 15.1848C67.152 14.6591 66.1954 14.1334 65.1981 13.6481C61.9824 12.0508 57.2809 9.30083 53.8209 7.48104C53.8209 6.16675 53.9837 5.01421 52.6404 5.01421C51.3582 5.01421 51.46 6.20719 51.46 7.48104L48.6309 9.03801C44.7436 10.9589 39.5943 14.0525 35.6459 16.0745C35.0963 16.3576 34.6689 16.5598 34.2212 16.9844C33.4071 17.7528 32.7558 18.3593 32.2877 19.431C31.27 21.7159 30.8426 26.2653 34.3433 26.2653H51.4803V33.9691C49.9946 32.9783 48.8345 31.4416 46.3107 33.504C45.7408 33.9691 44.9878 34.697 44.4383 34.8386C42.3826 33.4636 41.1208 31.1383 38.2307 33.4838L36.521 34.8386C36.0529 34.7172 35.137 33.9084 34.73 33.5647C31.8195 31.199 30.7815 33.2007 28.3189 34.8386C26.1818 33.7062 25.0014 31.017 21.9688 33.4838C21.4803 33.868 20.6662 34.697 20.1167 34.8386C17.9593 33.4029 18.1221 32.5133 15.7205 32.5133C14.8453 32.5133 13.8277 33.5647 13.2375 33.9691V27.2763C14.8046 27.2359 16.7992 25.8407 17.593 24.9106C18.6106 23.7176 19.384 21.9989 19.384 19.8556V11.2621C19.384 3.51792 8.37311 0.909604 5.25914 8.71447C4.89279 9.74568 4.75032 10.8578 4.75032 12.172ZM47.8168 12.172C47.4301 12.8797 44.7232 16.0543 43.9905 16.9642C41.9959 19.4512 42.2605 19.7747 42.2605 23.9603C40.8358 23.9603 39.4315 23.9603 38.0068 23.9603C37.213 23.9603 34.3229 24.304 33.9769 23.7378C33.4681 22.929 34.2822 20.5431 34.4858 20.1589C35.3406 18.5009 38.8616 16.8428 40.7341 15.8925C41.3243 15.6094 41.6092 15.4072 42.1588 15.1242L47.8168 12.172ZM57.4844 12.172L63.8141 15.4881C66.8874 17.3484 70.1438 18.0358 71.2022 20.9677C71.5075 21.8169 71.4057 22.8886 71.4057 23.9603H63.2035C63.2035 20.442 63.1425 18.9457 61.4125 17.0046L57.4844 12.172ZM10.9172 24.9713C9.04474 24.8095 7.11124 22.5449 7.11124 20.3207V11.1611C7.11124 8.65379 9.41111 6.34872 11.5074 6.34872C13.2578 6.34872 14.2551 6.36892 15.7205 7.84497C16.4328 8.57289 17.0638 9.64456 17.0638 11.0195V20.4824C17.0638 21.6956 16.4736 22.7066 15.924 23.4143C15.3542 24.122 14.2348 24.9106 13.2578 24.9915V15.8116C13.2782 14.6995 13.1764 13.9312 12.0773 13.9312C10.4491 13.9312 10.8969 16.5193 10.8969 18.8851C10.9172 20.8868 10.9172 22.929 10.9172 24.9713ZM44.4586 21.6148C44.4586 19.5928 45.4152 18.7637 46.616 17.3483L51.5007 11.4239V23.94H44.479V21.6148H44.4586ZM37.559 37.2043C37.559 36.6381 40.0624 34.9599 40.4898 34.7374C40.8969 34.9599 43.4206 36.6786 43.4206 37.2043V42.1581H37.559V37.2043ZM45.7816 36.7594C46.2904 36.6179 46.1072 36.6179 46.4939 36.3146L48.5699 34.7374C49.2415 34.9194 50.2185 35.9304 50.8494 36.3955C51.114 36.5977 51.5007 36.8403 51.5007 37.2043V42.1581H45.7816V36.7594ZM53.8209 37.2043C53.8209 36.7999 54.1465 36.6583 54.4111 36.4764C54.6757 36.2742 54.8792 36.1124 55.1438 35.9102C55.7748 35.4249 55.9579 35.1621 56.7517 34.7374C57.118 34.9396 59.6825 36.7392 59.6825 37.2043V42.1581H53.8209V37.2043ZM61.8806 37.2043C61.8806 36.7797 62.2062 36.6988 62.4912 36.4966C62.7354 36.2944 62.9593 36.1326 63.2239 35.9102C63.7531 35.4856 64.2212 35.0408 64.8114 34.7172C65.2388 34.9397 67.7422 36.6179 67.7422 37.1841V42.1379H61.8806V37.2043ZM37.559 48.5476C37.559 46.5054 37.1927 44.4632 38.1493 44.4632H67.152C68.1086 44.4632 67.7422 46.5054 67.7422 48.5476C67.7422 48.8914 67.498 49.134 67.152 49.134H38.4342C38.0068 49.134 37.559 48.9925 37.559 48.5476ZM7.82361 51.8839C7.82361 52.9758 8.04749 54.0474 8.27137 54.9371H5.19808V37.1841C5.19808 36.7999 5.99188 36.2742 6.52105 35.8698C8.53598 34.3128 7.66081 34.3937 10.266 36.355C10.5306 36.5572 10.9172 36.7999 10.9172 37.1638V50.8527C10.2863 50.8729 7.82361 50.7112 7.82361 51.8839ZM13.2578 37.2043C13.2578 36.6179 15.7816 34.9396 16.1886 34.7374C16.901 35.1216 18.1628 36.2742 19.1194 36.9212V46.101C19.1194 47.1525 19.1398 48.1432 20.137 48.1432C21.2361 48.1432 21.3175 47.3749 21.3175 46.2628V36.9414C22.2741 36.2944 23.5563 35.1216 24.2483 34.7577C24.6757 34.9801 27.1791 36.6583 27.1791 37.2245V50.9134H13.2578V37.2043ZM57.9322 51.3177H59.8453L63.6513 68.7877H61.7381C61.0665 65.9367 60.4152 62.924 59.8453 60.0527C59.54 58.5767 59.2144 57.222 58.9091 55.7459C58.7666 54.9573 58.1967 51.8435 57.9322 51.3177ZM43.2782 68.7675H41.8128C41.8128 67.9385 43.4003 61.1244 43.6038 60.073C43.8887 58.6778 44.2347 57.2624 44.54 55.7459L45.4763 51.2975H47.3894L43.8277 67.8374C43.7056 68.3833 43.8277 68.7675 43.2782 68.7675ZM62.1859 51.3177H67.7626V54.9573H62.9186C62.8982 54.5327 62.2877 51.5806 62.1859 51.3177ZM42.403 54.9573H37.559V51.3177H43.1153C43.0339 52.4905 42.5048 53.7441 42.403 54.9573ZM10.1845 53.1982H27.0366C27.0366 56.5749 23.2103 60.1741 19.2822 60.1741C15.3541 60.1741 13.156 59.062 11.2022 55.9885C10.8969 55.5033 10.8155 55.2404 10.6323 54.6743C10.4695 54.3305 10.3066 53.5015 10.1845 53.1982ZM29.5197 37.2043C29.5197 36.7594 30.3134 36.2944 30.8019 35.8698C31.1886 35.526 31.962 34.8588 32.4505 34.7374C32.9593 35.0812 33.3053 35.3643 33.7938 35.7282C34.3229 36.1528 34.7707 36.6381 35.2388 36.7594V54.9573H29.5197V37.2043ZM49.73 51.3177H55.5916C55.9172 51.9648 56.1615 54.3305 56.4668 54.9573H48.9973C48.9973 54.2496 49.5265 52.1265 49.73 51.3177ZM70.0828 37.2043C70.0828 36.6988 72.4437 34.9599 72.8711 34.7374C73.5835 35.1014 74.3772 35.8495 75.1099 36.4359C75.4356 36.6786 75.8019 36.7797 75.8019 37.2043V54.9573H70.0828V37.2043Z" fill="black"/>
<path fill-rule="evenodd" clip-rule="evenodd" d="M3 74.9913C3 75.5652 3.34695 76 4.18376 76H58.8215C60.3931 76 60.536 74 58.3725 74H4.3062C3.61226 74 3 74.3478 3 74.9913Z" fill="black"/>
<path fill-rule="evenodd" clip-rule="evenodd" d="M63 75.0002C63 75.5691 63.3405 76 64.1615 76H76.8385C77.5394 76 77.9199 75.6381 78 75.2243V74.8967C77.9199 74.4312 77.4793 74 76.6983 74H64.4419C63.5808 74.0172 63 74.276 63 75.0002Z" fill="black"/>
</svg>
