<svg width="326" height="46" viewBox="0 0 326 46" fill="none" xmlns="http://www.w3.org/2000/svg">
<path d="M49.0754 27.7186C48.6372 27.2114 48.2859 26.6193 47.9563 26.0311C47.3563 24.9653 46.9043 23.8009 46.2037 22.8101C44.4195 20.2897 42.5425 17.8364 40.1761 15.8094C39.9847 15.6456 39.807 15.466 39.5978 15.2706C40.5353 15.0061 41.4116 14.8226 42.2406 14.5147C44.907 13.52 46.4839 11.3667 46.5392 8.7338C46.6063 5.53841 45.2662 3.32395 42.5327 2.12C40.8965 1.39961 39.1676 1.19238 37.3992 1.19435C34.3518 1.1983 31.3045 1.19435 28.2571 1.19435H27.6196C27.6038 1.28514 27.5881 1.37593 27.5723 1.46672C27.7834 1.51409 27.9927 1.58909 28.2058 1.60093C29.0387 1.64632 29.3565 1.91869 29.4433 2.73777C29.4867 3.15026 29.5045 3.56671 29.5045 3.98316C29.5084 11.3785 29.5065 18.7759 29.5045 26.1712C29.5045 26.4772 29.4946 26.7851 29.4709 27.089C29.3821 28.2179 29.1492 28.437 28.0321 28.5298C27.8841 28.5416 27.7459 28.6798 27.6038 28.7607C27.7479 28.816 27.89 28.9206 28.0341 28.9206C30.2051 28.9304 32.3742 28.9324 34.5452 28.9206C34.7071 28.9206 34.8669 28.8022 35.0288 28.737C34.8748 28.664 34.7248 28.5397 34.5669 28.5278C33.3235 28.441 33.061 28.1805 33.0018 26.9193C32.992 26.7219 32.992 26.5245 32.992 26.3291C32.992 23.0903 32.992 19.8515 32.992 16.6147C32.992 16.4233 33.0117 16.2338 33.0295 15.9397C33.8229 15.9397 34.5847 15.9318 35.3485 15.9476C35.4867 15.9515 35.6485 16.0305 35.7531 16.1252C37.1071 17.3627 38.5518 18.5193 39.7794 19.8732C42.0846 22.4153 43.9142 25.2949 45.3471 28.4212C45.4359 28.6166 45.6333 28.9028 45.7853 28.9068C47.378 28.9423 48.9708 28.9285 50.5635 28.9285C50.5852 28.8673 50.6089 28.8061 50.6326 28.7449C50.4865 28.6541 50.3405 28.5633 50.1944 28.4706C49.8155 28.2278 49.3576 28.0502 49.0734 27.7245L49.0754 27.7186ZM37.484 13.7904C36.0413 14.0015 34.565 13.9877 32.992 14.0844V12.3022C32.992 9.72261 32.992 7.14302 32.992 4.56342C32.992 3.64961 33.2584 3.26474 34.1841 3.22526C35.5143 3.16803 36.8564 3.16408 38.1788 3.28645C38.988 3.36145 39.8051 3.63974 40.557 3.96934C41.984 4.59302 42.7123 5.77328 42.8662 7.30091C43.2294 10.9029 41.3406 13.2259 37.4821 13.7923L37.484 13.7904Z" fill="white"/>
<path d="M266.376 1.26819C266.368 1.34122 266.358 1.41622 266.351 1.48924C266.56 1.52872 266.769 1.59385 266.98 1.60174C267.983 1.63332 268.31 1.89779 268.451 2.8945C268.526 3.43331 268.561 3.982 268.561 4.52673C268.569 10.6076 268.567 16.6905 268.565 22.7714C268.565 22.951 268.539 23.1286 268.518 23.401C268.393 23.2411 268.336 23.176 268.289 23.1069C263.587 16.2504 258.862 9.40961 254.216 2.51753C253.54 1.51293 252.868 1.05306 251.651 1.16753C250.417 1.28398 249.166 1.19319 247.922 1.19319C247.905 1.27411 247.887 1.35503 247.867 1.43595C248.035 1.49122 248.203 1.54845 248.37 1.60371C248.67 1.7024 249.097 1.71029 249.245 1.91556C249.683 2.52542 250.093 3.14713 250.092 3.98792C250.068 11.0754 250.08 18.1648 250.074 25.2523C250.074 25.8425 250.056 26.4346 249.995 27.0207C249.88 28.124 249.501 28.4556 248.396 28.5207C248.228 28.5306 248.067 28.6313 247.903 28.6905C248.069 28.7674 248.234 28.9115 248.4 28.9135C250.285 28.9293 252.17 28.9253 254.055 28.9194C254.191 28.9194 254.329 28.872 254.465 28.8484C254.475 28.7793 254.485 28.7082 254.495 28.6392C254.288 28.5977 254.082 28.5326 253.873 28.5188C252.991 28.4596 252.632 28.199 252.493 27.3306C252.389 26.6655 252.355 25.9826 252.355 25.3076C252.345 19.051 252.349 12.7945 252.349 6.53791V5.90239C252.399 5.88857 252.45 5.87475 252.499 5.86094C253.249 6.93462 254.001 8.0083 254.749 9.08198C259.281 15.5774 263.81 22.0747 268.348 28.5661C268.502 28.7852 268.717 29.0852 268.934 29.1128C269.532 29.1878 270.146 29.1385 270.819 29.1385V28.2918C270.819 20.5688 270.817 12.8458 270.823 5.12476C270.823 4.4695 270.862 3.81226 270.92 3.16095C271.026 1.95306 271.334 1.67871 272.566 1.59977C272.726 1.5899 272.878 1.48529 273.033 1.42411C273.016 1.37279 273 1.31951 272.982 1.26819H266.376Z" fill="white"/>
<path d="M295.985 1.24879C295.971 1.31787 295.955 1.38498 295.941 1.45406C296.117 1.50537 296.293 1.59221 296.47 1.60208C297.443 1.6534 297.739 1.89221 297.937 2.84945C297.99 3.10405 298.031 3.36852 298.031 3.62905C298.057 7.08496 298.087 10.5409 298.089 13.9988C298.091 16.2744 298.12 18.552 298.016 20.8218C297.874 23.8948 295.987 26.3046 293.123 27.0073C291.972 27.2895 290.733 27.3684 289.545 27.3073C286.456 27.1434 284.405 25.5586 283.606 22.8033C283.363 21.9704 283.184 21.0882 283.178 20.2277C283.136 14.5613 283.14 8.89482 283.152 3.22839C283.154 1.908 283.407 1.69682 284.729 1.60208C284.883 1.59024 285.029 1.47971 285.179 1.41458C285.161 1.36129 285.143 1.308 285.126 1.25669C284.999 1.23695 284.875 1.20142 284.749 1.20142C282.512 1.19748 280.276 1.19945 278.04 1.19945C277.953 1.19945 277.855 1.17971 277.78 1.21129C277.695 1.24879 277.632 1.33366 277.559 1.39682C277.626 1.4659 277.683 1.5705 277.764 1.59419C277.886 1.62971 278.024 1.60603 278.157 1.60998C279.185 1.63761 279.53 1.95734 279.601 2.97971C279.625 3.32905 279.621 3.68036 279.621 4.02971C279.621 8.60272 279.615 13.1757 279.627 17.7468C279.629 18.8165 279.657 19.8902 279.743 20.9579C280.073 25.0257 282.552 28.0217 286.44 29.0027C288.929 29.6303 291.443 29.6204 293.912 28.9C297.011 27.9941 299.076 25.979 299.861 22.8329C300.175 21.5737 300.317 20.2454 300.333 18.9448C300.388 14.3738 300.349 9.80074 300.36 5.22773C300.36 4.46391 300.38 3.69221 300.491 2.94024C300.645 1.88432 300.95 1.66524 302.006 1.60208C302.174 1.59221 302.338 1.49353 302.502 1.43629L302.441 1.24879H295.983H295.985Z" fill="white"/>
<path d="M244.853 24.1043C244.22 24.0609 244.206 24.055 243.981 24.5228C243.3 25.9339 242.23 26.8576 240.628 26.8892C237.561 26.9464 234.494 26.9188 231.425 26.9208C230.779 26.9208 230.57 26.5497 230.572 25.9438C230.584 22.6182 230.578 19.2925 230.582 15.9688C230.582 15.8267 230.627 15.6846 230.655 15.5188C233.607 15.5188 236.521 15.4991 239.432 15.5267C240.835 15.5405 241.139 15.8465 241.488 17.2261C241.534 17.4057 241.771 17.5379 241.917 17.6899C241.964 17.6465 242.013 17.603 242.061 17.5616V11.4906C242 11.4531 241.94 11.4156 241.879 11.3781C241.743 11.5478 241.534 11.6998 241.486 11.8932C241.19 13.0873 240.876 13.4169 239.645 13.4327C236.73 13.4721 233.815 13.4603 230.9 13.4662C230.817 13.4662 230.734 13.4327 230.667 13.4169C230.635 13.3557 230.598 13.3182 230.598 13.2807C230.594 10.1307 230.598 6.98071 230.59 3.83072C230.59 3.31164 230.852 3.16756 231.332 3.16954C234.355 3.18532 237.381 3.16164 240.405 3.19519C242.005 3.21296 242.343 3.5248 242.836 5.0465C242.894 5.22216 243.14 5.33466 243.399 5.56755V1.2373H225.217L225.156 1.48796C225.365 1.52744 225.575 1.59257 225.786 1.60441C226.607 1.64783 226.893 1.86888 227.019 2.66625C227.083 3.0748 227.1 3.49322 227.102 3.90769C227.106 11.3465 227.106 18.7833 227.102 26.2221C227.102 26.5931 227.094 26.9681 227.043 27.3333C226.911 28.251 226.654 28.4563 225.709 28.5293C225.529 28.5431 225.36 28.6675 225.184 28.7425C225.367 28.8056 225.551 28.8708 225.735 28.928C225.774 28.9398 225.821 28.928 225.865 28.928H243.841C244.182 27.2899 244.514 25.703 244.848 24.1043H244.853Z" fill="white"/>
<path d="M325.006 24.5277C324.357 25.9211 323.301 26.8468 321.72 26.8783C318.631 26.9395 315.543 26.9139 312.452 26.9178C311.745 26.9178 311.609 26.4678 311.611 25.8639C311.623 22.6053 311.617 19.3448 311.619 16.0863C311.619 15.9165 311.645 15.7468 311.66 15.5534C311.816 15.5336 311.943 15.504 312.067 15.504C314.85 15.504 317.635 15.4922 320.418 15.5218C321.876 15.5376 322.164 15.8198 322.529 17.2349C322.575 17.4106 322.816 17.5349 322.966 17.683C323.009 17.6376 323.052 17.5942 323.094 17.5488V11.4836C323.031 11.4481 322.968 11.4106 322.904 11.3751C322.772 11.5488 322.569 11.7067 322.521 11.9001C322.237 13.0626 321.916 13.3586 320.737 13.4336C320.475 13.4514 320.212 13.4613 319.95 13.4613C317.364 13.4652 314.777 13.4672 312.191 13.4652C312.024 13.4652 311.854 13.4356 311.674 13.4178C311.652 13.2994 311.623 13.2165 311.623 13.1336C311.623 10.0705 311.625 7.00932 311.625 3.94617C311.625 3.47643 311.727 3.16064 312.32 3.16459C315.389 3.1863 318.456 3.15867 321.525 3.19617C323.06 3.21591 323.378 3.52775 323.883 5.0534C323.941 5.22314 324.189 5.33169 324.44 5.54287V1.23828H306.252C306.235 1.31328 306.217 1.38631 306.199 1.46131C306.347 1.51065 306.495 1.5896 306.647 1.60144C307.802 1.68631 308.033 1.90538 308.131 3.06393C308.153 3.32446 308.149 3.58893 308.149 3.85143C308.149 11.3336 308.151 18.8139 308.147 26.2961C308.147 26.6889 308.124 27.0836 308.06 27.4704C307.938 28.2264 307.656 28.4573 306.874 28.5165C306.655 28.5323 306.438 28.5619 306.219 28.5836C306.213 28.6586 306.209 28.7336 306.203 28.8086C306.399 28.8481 306.596 28.9211 306.791 28.9231C308.895 28.931 310.999 28.929 313.103 28.929C316.829 28.929 320.556 28.929 324.282 28.929C324.576 28.929 324.892 29.0158 324.981 28.5579C325.267 27.0816 325.583 25.6132 325.887 24.1369C325.413 23.9297 325.196 24.127 325.008 24.5297L325.006 24.5277Z" fill="white"/>
<path d="M141.083 28.4832C140.007 28.2424 139.63 27.3859 139.263 26.5017C135.819 18.1885 132.361 9.87935 128.937 1.55635C128.706 0.991881 128.404 0.849776 127.861 0.897144C127.322 0.944512 126.815 0.780697 126.507 1.54056C124.36 6.82213 122.151 12.078 119.961 17.3418C118.786 20.1662 117.618 22.9905 116.436 25.8109C115.927 27.0247 115.311 28.1497 113.876 28.503C113.777 28.5267 113.718 28.7122 113.605 28.874H119.795C119.815 28.8247 119.836 28.7734 119.856 28.724C119.742 28.651 119.637 28.5444 119.513 28.5128C118.186 28.1872 118.001 27.9188 118.475 26.6576C119.197 24.7352 119.969 22.8326 120.752 20.9359C120.823 20.7622 121.127 20.5747 121.323 20.5747C125.114 20.553 128.905 20.5629 132.697 20.551C133.066 20.551 133.24 20.6754 133.372 21.0109C134.14 22.9392 134.937 24.8536 135.711 26.78C136.157 27.8892 135.92 28.2859 134.743 28.5049C134.584 28.5346 134.438 28.6451 134.286 28.7161C134.305 28.7714 134.325 28.8267 134.343 28.8819H141.377C141.233 28.6826 141.174 28.503 141.079 28.4813L141.083 28.4832ZM121.717 18.5102C123.497 14.107 125.266 9.7333 127.09 5.22147C128.913 9.73133 130.676 14.0892 132.464 18.5102H121.717Z" fill="white"/>
<path d="M204.357 28.4798C203.309 28.2469 202.924 27.4199 202.566 26.5535C199.113 18.2206 195.649 9.88971 192.218 1.54697C191.984 0.976578 191.674 0.85421 191.137 0.897631C190.594 0.941052 190.097 0.787105 189.787 1.54894C187.6 6.93116 185.348 12.2877 183.118 17.6522C181.995 20.3542 180.876 23.0601 179.745 25.7581C179.228 26.9916 178.616 28.1462 177.153 28.5035C177.057 28.5271 176.994 28.6929 176.855 28.8686H183.084C183.104 28.7936 183.122 28.7206 183.14 28.6456C182.917 28.5785 182.696 28.5015 182.469 28.4482C181.628 28.2528 181.421 27.9252 181.63 27.0844C181.683 26.8732 181.736 26.6581 181.815 26.4568C182.542 24.6291 183.284 22.8094 183.992 20.9759C184.132 20.6147 184.34 20.5495 184.683 20.5495C188.431 20.5594 192.179 20.5594 195.927 20.5495C196.3 20.5495 196.515 20.6384 196.665 21.0153C197.427 22.9456 198.228 24.8601 199.002 26.7844C199.446 27.8877 199.205 28.2804 198.021 28.5015C197.863 28.5311 197.721 28.6456 197.571 28.7186C197.591 28.7739 197.613 28.8271 197.632 28.8824H204.682C204.52 28.6693 204.455 28.4956 204.359 28.4739L204.357 28.4798ZM184.991 18.5324C186.781 14.1035 188.551 9.72787 190.373 5.22196C192.197 9.73181 193.961 14.0936 195.755 18.5324H184.991Z" fill="white"/>
<path d="M90.8693 19.8155C90.2634 17.7293 88.8404 16.2569 87.0818 15.1082C85.4713 14.0563 83.7602 13.1563 82.1457 12.1102C81.0661 11.4115 79.9826 10.6694 79.0687 9.77734C76.6293 7.39116 78.0049 3.64117 81.0404 2.9267C84.2358 2.17473 87.7509 3.25433 89.2904 6.85629C89.4581 7.24708 89.6239 7.46024 90.0996 7.19971C89.9239 5.18261 89.7443 3.14775 89.5548 0.970785C89.3081 1.13263 89.1088 1.18789 89.0634 1.30434C88.8147 1.94381 88.3627 1.9221 87.8259 1.75631C87.0108 1.50368 86.1957 1.25105 85.3707 1.03592C83.4681 0.53855 81.5418 0.44776 79.6747 1.10697C77.1207 2.00894 75.2596 3.68459 74.7879 6.44774C74.33 9.12997 75.1609 11.455 77.3971 13.105C78.8536 14.1806 80.4306 15.0905 81.9464 16.0872C83.2233 16.928 84.5299 17.7332 85.7516 18.651C87.4095 19.8944 87.9483 21.6451 87.5082 23.6108C87.0483 25.6595 85.6391 26.8793 83.6161 27.351C80.2549 28.1325 76.655 26.4115 74.8629 23.2102C74.7287 22.9714 74.6004 22.7286 74.3773 22.3201C74.2352 22.6477 74.0833 22.8273 74.101 22.9891C74.2905 24.8365 74.5017 26.6839 74.7208 28.5292C74.7365 28.6556 74.8569 28.77 74.928 28.8904C75.0602 28.8075 75.2596 28.7542 75.3129 28.6358C75.5379 28.1444 75.8852 28.1128 76.3411 28.2569C77.0299 28.474 77.7247 28.6714 78.4214 28.8608C80.8312 29.5161 83.2549 29.7075 85.6726 28.926C89.8608 27.572 92.0259 23.7786 90.8752 19.8174L90.8693 19.8155Z" fill="white"/>
<path d="M22.5746 24.6381C19.9733 26.7499 17.0286 27.4881 13.8431 27.3322C9.52866 27.1229 6.4754 25.019 4.8412 21.0124C3.63529 18.0539 3.54648 14.9552 4.06358 11.8447C4.82739 7.25787 7.69315 3.21183 13.1878 2.72433C16.099 2.46578 18.7279 3.15065 20.82 5.29209C21.345 5.82893 21.6845 6.54538 22.1266 7.16906C22.2253 7.30919 22.3911 7.40195 22.5272 7.5184C22.6022 7.34274 22.7384 7.16906 22.7443 6.99143C22.7582 6.42301 22.7325 5.85459 22.7068 5.28617C22.6358 3.76249 22.5588 2.23881 22.472 0.5C22.1937 0.762499 22.022 0.86513 21.9332 1.0171C21.4338 1.87171 21.3549 1.90131 20.3641 1.64276C18.0924 1.04276 15.8049 0.610526 13.4286 0.679605C8.14512 0.837499 4.21358 3.19999 1.7011 7.81643C-0.0534909 11.0414 -0.280463 14.5427 0.256375 18.0953C0.917554 22.4651 3.06688 25.8953 7.08526 27.9341C10.2491 29.5407 13.6378 29.7321 17.0878 29.1124C19.1523 28.7414 20.9937 27.865 22.6476 26.5723C23.0305 26.2723 23.1983 26.0078 22.9378 25.5479C22.7897 25.2854 22.7108 24.9854 22.5746 24.6361V24.6381Z" fill="white"/>
<path d="M211.509 28.5618C213.884 22.3842 216.27 16.2125 218.654 10.0388C219.528 7.77697 220.397 5.51514 221.279 3.25725C221.585 2.47173 221.919 1.69805 222.933 1.59344C223.018 1.58555 223.085 1.41384 223.259 1.19476C221.251 1.19476 219.416 1.19278 217.578 1.20265C217.478 1.20265 217.379 1.31318 217.278 1.37239C217.379 1.45331 217.472 1.59542 217.578 1.60528C218.976 1.73949 219.08 2.46581 218.688 3.64409C218.646 3.76843 218.599 3.8908 218.551 4.01317C216.894 8.35921 215.238 12.7072 213.578 17.0533C212.707 19.3348 211.833 21.6144 210.929 23.9769C210.819 23.7381 210.74 23.5861 210.677 23.4263C207.986 16.6467 205.296 9.86513 202.61 3.08357C202.213 2.08291 202.446 1.72963 203.524 1.61515C203.737 1.59344 203.944 1.52634 204.156 1.47897C204.136 1.38423 204.116 1.2895 204.094 1.19278H203.453C201.481 1.19278 199.508 1.19278 197.536 1.19278C197.404 1.19278 197.267 1.17502 197.143 1.20463C197.056 1.22436 196.981 1.30923 196.902 1.36449C196.975 1.44936 197.037 1.59344 197.121 1.60726C198.329 1.8066 198.752 2.7441 199.148 3.71515C202.531 12.0066 205.928 20.2921 209.277 28.5973C209.591 29.373 210.118 29.144 210.641 29.2151C211.182 29.2901 211.344 28.9881 211.506 28.5618H211.509Z" fill="white"/>
<path d="M62.0933 26.922C62.0736 26.6161 62.0775 26.3102 62.0775 26.0042C62.0775 23.6852 62.1683 21.3602 62.0459 19.049C61.9571 17.3694 62.419 16.0016 63.3584 14.6161C65.8492 10.9411 68.2137 7.17929 70.6235 3.45101C71.1584 2.62207 71.7781 1.91352 72.8064 1.68457C72.9761 1.64707 73.1143 1.47142 73.2662 1.35892C73.0965 1.30563 72.9268 1.20497 72.757 1.203C71.0261 1.19115 69.2933 1.18918 67.5624 1.203C67.3531 1.203 67.1459 1.31352 66.9367 1.37076C67.1242 1.45563 67.3038 1.58589 67.5012 1.61944C68.3419 1.76747 68.5827 2.19576 68.2216 2.96549C68.1387 3.14312 68.0242 3.30694 67.9196 3.47272C65.7308 6.92863 63.542 10.3845 61.3532 13.8385C61.2288 14.0339 61.0946 14.2233 60.9466 14.4405C60.8637 14.3378 60.8025 14.2766 60.7552 14.2036C58.3927 10.574 56.0322 6.94245 53.6717 3.31088C53.5651 3.14707 53.4684 2.97141 53.3934 2.79181C53.0993 2.09115 53.2335 1.82865 53.9697 1.67865C54.2046 1.63128 54.4513 1.64115 54.6842 1.58984C54.7532 1.57405 54.8243 1.45365 54.846 1.36681C54.8559 1.32931 54.7513 1.22865 54.6861 1.21484C54.5598 1.18721 54.4256 1.1951 54.2934 1.1951C52.1006 1.1951 49.9099 1.1951 47.7171 1.19707C47.5375 1.19707 47.3579 1.23457 47.123 1.26221C47.1882 1.4201 47.2138 1.55628 47.2494 1.56023C48.477 1.63918 49.0217 2.57273 49.6099 3.44115C52.5151 7.73587 55.4184 12.0326 58.3039 16.3391C58.4835 16.6076 58.596 16.9786 58.5979 17.3043C58.6197 20.3023 58.6137 23.2983 58.6078 26.2963C58.6078 26.624 58.5841 26.9516 58.5427 27.2773C58.4341 28.1378 58.1519 28.4101 57.2835 28.5009C57.0447 28.5266 56.798 28.493 56.5631 28.5345C56.4447 28.5542 56.346 28.6805 56.2374 28.7575C56.2592 28.8009 56.2828 28.8463 56.3045 28.8897H64.4222C64.438 28.8147 64.4538 28.7378 64.4696 28.6628C64.2367 28.6154 64.0058 28.5325 63.7729 28.5246C62.5216 28.4772 62.1782 28.1595 62.0973 26.924L62.0933 26.922Z" fill="white"/>
<path d="M107.036 3.2967C108.826 3.2967 110.553 3.28881 112.282 3.2967C114.479 3.30855 114.834 3.58683 115.497 5.69472C115.554 5.8763 115.795 6.00064 116.028 6.22959V1.25H94.4004V6.05985C94.7109 6.05722 94.9103 5.89077 94.9984 5.56051C95.4326 3.93815 95.8806 3.40328 97.2622 3.34999C99.3148 3.26907 101.373 3.32828 103.511 3.32828V3.78026C103.511 11.3493 103.511 18.9164 103.507 26.4854C103.507 26.7894 103.489 27.0993 103.438 27.3993C103.302 28.1927 103.031 28.4295 102.218 28.5065C102.044 28.5223 101.861 28.4907 101.695 28.5302C101.555 28.5618 101.433 28.6664 101.3 28.7374C101.438 28.8006 101.577 28.919 101.715 28.919C104.06 28.9308 106.404 28.9308 108.749 28.919C108.891 28.919 109.035 28.8104 109.177 28.7532C109.033 28.6743 108.891 28.5381 108.741 28.5282C107.302 28.4335 107.093 28.2341 107.01 26.8091C106.998 26.6137 106.994 26.4164 106.994 26.219C106.994 18.8256 106.994 11.4322 106.994 4.03881C106.994 3.80789 107.018 3.57697 107.032 3.29473L107.036 3.2967Z" fill="white"/>
<path d="M165.38 23.9955C165.319 23.9441 165.258 23.8909 165.196 23.8395C165.021 23.9738 164.76 24.0724 164.679 24.2501C163.935 25.908 162.7 26.8237 160.856 26.8711C159.631 26.9027 158.403 26.9441 157.177 26.952C155.533 26.9619 153.889 26.9619 152.245 26.9303C151.412 26.9145 151.245 26.7468 151.245 26.052C151.245 18.4593 151.243 10.8666 151.258 3.27382C151.26 1.93369 151.547 1.68501 152.877 1.60211C153.037 1.59224 153.189 1.48764 153.345 1.42645C153.222 1.2508 153.143 1.2054 153.062 1.2054C150.761 1.19948 148.458 1.19751 146.156 1.2054C146.036 1.2054 145.916 1.31988 145.797 1.38303C145.925 1.45803 146.058 1.60409 146.182 1.59619C147.443 1.52711 147.704 2.12908 147.723 3.19882C147.729 3.50474 147.733 3.81066 147.733 4.11855C147.733 8.69156 147.735 13.2646 147.733 17.8376C147.733 20.9007 147.739 23.9639 147.714 27.027C147.704 28.1718 147.39 28.4481 146.267 28.5251C146.097 28.5369 145.933 28.6218 145.766 28.6711C145.785 28.7441 145.805 28.8152 145.827 28.8882H164.255C164.632 27.252 165.007 25.6237 165.382 23.9955H165.38Z" fill="white"/>
<path d="M70.1615 37.3389H69.1273L65.6833 40.8875V37.3389H64.7754V43.6842H65.6833V42.0421L66.8477 40.8619L69.2734 43.6842H70.3332L67.4537 40.1968L70.1615 37.3389Z" fill="white"/>
<path d="M76.3396 38.1863C76.0336 37.8923 75.6784 37.6673 75.2698 37.5074C74.8613 37.3475 74.4152 37.2666 73.9317 37.2666C73.4481 37.2666 72.9922 37.3475 72.5817 37.5113C72.1712 37.6752 71.8139 37.9021 71.512 38.1962C71.21 38.4903 70.9731 38.8317 70.8054 39.2245C70.6357 39.6173 70.5508 40.0475 70.5508 40.5113C70.5508 40.9751 70.6357 41.4054 70.8054 41.7982C70.9751 42.1909 71.21 42.5344 71.512 42.8265C71.8139 43.1205 72.1731 43.3475 72.5856 43.5113C73.0001 43.6751 73.4481 43.7561 73.9317 43.7561C74.4152 43.7561 74.8613 43.6751 75.2698 43.5153C75.6784 43.3554 76.0336 43.1284 76.3396 42.8343C76.6455 42.5422 76.8803 42.1988 77.0461 41.8061C77.2119 41.4133 77.2948 40.9811 77.2948 40.5094C77.2948 40.0376 77.2119 39.6054 77.0461 39.2126C76.8803 38.8199 76.6435 38.4765 76.3396 38.1844V38.1863ZM76.2034 41.4824C76.079 41.7784 75.9073 42.037 75.6863 42.258C75.4652 42.4791 75.2067 42.6488 74.9067 42.7712C74.6067 42.8936 74.283 42.9528 73.9317 42.9528C73.5804 42.9528 73.2468 42.8916 72.9488 42.7712C72.6508 42.6508 72.3883 42.4791 72.1652 42.258C71.9422 42.037 71.7685 41.7784 71.6442 41.4824C71.5199 41.1863 71.4587 40.8626 71.4587 40.5113C71.4587 40.16 71.5199 39.8383 71.6442 39.5403C71.7685 39.2442 71.9422 38.9857 72.1652 38.7646C72.3883 38.5436 72.6508 38.3738 72.9488 38.2515C73.2488 38.1311 73.5764 38.0699 73.9317 38.0699C74.2869 38.0699 74.6067 38.1311 74.9067 38.2515C75.2067 38.3719 75.4652 38.5436 75.6863 38.7646C75.9073 38.9857 76.079 39.2442 76.2034 39.5403C76.3277 39.8363 76.3889 40.16 76.3889 40.5113C76.3889 40.8626 76.3277 41.1863 76.2034 41.4824Z" fill="white"/>
<path d="M78.866 38.31L79.1996 36.9561H78.6292L78.2029 38.2251C78.1595 38.3337 78.1279 38.4264 78.1022 38.5014C78.0785 38.5764 78.0608 38.6416 78.0529 38.6968C78.043 38.7501 78.0391 38.8093 78.0391 38.8685C78.0391 39.0442 78.0963 39.1903 78.2108 39.3087C78.3252 39.4271 78.4713 39.4863 78.647 39.4863C78.8226 39.4863 78.9588 39.4291 79.0733 39.3146C79.1877 39.2001 79.245 39.0521 79.245 38.8705C79.245 38.6889 79.1877 38.5449 79.0733 38.4343C79.0121 38.3771 78.943 38.3376 78.866 38.31Z" fill="white"/>
<path d="M84.5308 37.6014C84.138 37.4257 83.6644 37.3389 83.1078 37.3389H80.6328V43.6862H81.5387V41.7639H83.1078C83.6644 41.7639 84.138 41.675 84.5308 41.4974C84.9236 41.3198 85.2255 41.0652 85.4367 40.7356C85.6479 40.406 85.7545 40.0112 85.7545 39.5514C85.7545 39.0915 85.6479 38.6968 85.4367 38.3632C85.2255 38.0316 84.9236 37.777 84.5308 37.6014ZM84.3986 40.6033C84.0986 40.852 83.6604 40.9744 83.0802 40.9744H81.5387V38.1264H83.0802C83.6604 38.1264 84.1005 38.2507 84.3986 38.4974C84.6986 38.7461 84.8466 39.0954 84.8466 39.5494C84.8466 40.0033 84.6966 40.3527 84.3986 40.6014V40.6033Z" fill="white"/>
<path d="M89.6172 43.6842H90.5251V41.1185H93.7066V40.3389H90.5251V38.1264H94.0974V37.3389H89.6172V43.6842Z" fill="white"/>
<path d="M99.8104 40.9112C99.8104 41.6178 99.6545 42.1349 99.3426 42.4625C99.0308 42.7902 98.5887 42.952 98.0144 42.952C97.44 42.952 97.0058 42.7882 96.6959 42.4625C96.3841 42.1369 96.2282 41.6198 96.2282 40.9112V37.3389H95.3223V40.9468C95.3223 41.8665 95.5611 42.5632 96.0387 43.0408C96.5163 43.5185 97.1716 43.7573 98.0065 43.7573C98.8413 43.7573 99.5045 43.5185 99.9781 43.0408C100.452 42.5632 100.691 41.8645 100.691 40.9468V37.3389H99.8104V40.9112Z" fill="white"/>
<path d="M107.096 42.0678L103.289 37.3389H102.545V43.6842H103.453V38.9553L107.26 43.6842H108.004V37.3389H107.096V42.0678Z" fill="white"/>
<path d="M115.296 37.3389H114.264L110.818 40.8875V37.3389H109.91V43.6842H110.818V42.0421L111.983 40.8619L114.408 43.6842H115.468L112.588 40.1968L115.296 37.3389Z" fill="white"/>
<path d="M119.842 40.6288C119.615 40.5025 119.364 40.3998 119.09 40.3209C118.816 40.242 118.541 40.1709 118.269 40.1077C117.996 40.0446 117.748 39.9735 117.521 39.8946C117.294 39.8156 117.11 39.711 116.968 39.5768C116.826 39.4446 116.755 39.265 116.755 39.042C116.755 38.8545 116.808 38.6847 116.913 38.5347C117.017 38.3827 117.185 38.2624 117.416 38.1716C117.645 38.0808 117.939 38.0354 118.296 38.0354C118.581 38.0354 118.875 38.0768 119.177 38.1577C119.479 38.2387 119.767 38.3709 120.037 38.5525L120.337 37.8262C120.071 37.6446 119.757 37.5064 119.394 37.4097C119.031 37.313 118.666 37.2637 118.296 37.2637C117.74 37.2637 117.282 37.3466 116.923 37.5124C116.564 37.6781 116.297 37.8992 116.125 38.1735C115.954 38.4479 115.867 38.7499 115.867 39.0755C115.867 39.4012 115.936 39.6913 116.076 39.9045C116.214 40.1196 116.398 40.2893 116.625 40.4176C116.852 40.5439 117.102 40.6485 117.377 40.7295C117.651 40.8104 117.925 40.8814 118.198 40.9426C118.47 41.0038 118.719 41.0748 118.946 41.1558C119.173 41.2367 119.356 41.3452 119.498 41.4775C119.641 41.6097 119.712 41.7854 119.712 42.0025C119.712 42.19 119.656 42.3577 119.548 42.5058C119.439 42.6538 119.269 42.7702 119.041 42.8551C118.812 42.94 118.512 42.9814 118.142 42.9814C117.738 42.9814 117.347 42.9123 116.972 42.7722C116.597 42.6341 116.289 42.4584 116.046 42.2472L115.711 42.9538C115.966 43.1887 116.313 43.3821 116.753 43.5301C117.195 43.6781 117.657 43.7531 118.141 43.7531C118.697 43.7531 119.157 43.6702 119.524 43.5044C119.889 43.3387 120.16 43.1176 120.335 42.8433C120.511 42.5689 120.598 42.2709 120.598 41.9492C120.598 41.6275 120.529 41.3452 120.389 41.1341C120.248 40.9229 120.067 40.7531 119.84 40.6268L119.842 40.6288Z" fill="white"/>
<path d="M122.828 37.3389H121.922V43.6862H122.828V37.3389Z" fill="white"/>
<path d="M129.681 37.3389H128.783L126.742 40.6862L124.711 37.3389H123.742L126.263 41.4757V43.6842H127.159V41.4895L129.681 37.3389Z" fill="white"/>
<path d="M132.131 37.3389L129.258 43.6862H130.191L130.888 42.0994H134.263L134.96 43.6862H135.913L133.03 37.3389H132.131ZM131.208 41.3731L132.576 38.2586L133.943 41.3731H131.206H131.208Z" fill="white"/>
<path d="M137.763 37.3389H136.855V43.6842H141.2V42.8967H137.763V37.3389Z" fill="white"/>
<path d="M143.148 37.3389H142.242V43.6862H143.148V37.3389Z" fill="white"/>
<path d="M153.494 37.3389L150.881 41.7954L148.236 37.3389H147.492V43.6842H148.363V39.0856L150.656 42.9145H151.072L153.368 39.056L153.376 43.6842H154.246L154.238 37.3389H153.494Z" fill="white"/>
<path d="M158.061 37.3389L155.188 43.6862H156.121L156.818 42.0994H160.193L160.889 43.6862H161.841L158.957 37.3389H158.059H158.061ZM157.137 41.3731L158.505 38.2586L159.873 41.3731H157.136H157.137Z" fill="white"/>
<path d="M162.53 38.1264H164.824V41.6889C164.824 42.5475 164.46 42.9758 163.736 42.9758C163.47 42.9758 163.227 42.9106 163.006 42.7804C162.785 42.6501 162.587 42.4646 162.412 42.2218L161.887 42.8376C162.092 43.1336 162.358 43.3606 162.684 43.5165C163.01 43.6725 163.361 43.7514 163.736 43.7514C164.389 43.7514 164.883 43.5758 165.218 43.2264C165.554 42.8751 165.722 42.3461 165.722 41.6396V37.333H162.53V38.1225V38.1264Z" fill="white"/>
<path d="M173.576 37.3389L170.965 41.7954L168.318 37.3389H167.574V43.6842H168.445V39.0856L170.738 42.9145H171.156L173.45 39.056L173.46 43.6842H174.33L174.32 37.3389H173.576Z" fill="white"/>
<path d="M180.664 40.9112C180.664 41.6178 180.508 42.1349 180.196 42.4625C179.884 42.7882 179.442 42.952 178.868 42.952C178.294 42.952 177.859 42.7882 177.549 42.4625C177.238 42.1369 177.082 41.6198 177.082 40.9112V37.3389H176.176V40.9468C176.176 41.8665 176.415 42.5632 176.892 43.0408C177.37 43.5185 178.025 43.7573 178.86 43.7573C179.695 43.7573 180.358 43.5185 180.832 43.0408C181.307 42.5632 181.544 41.8645 181.544 40.9468V37.3389H180.664V40.9112Z" fill="white"/>
<path d="M185.178 37.3389L182.305 43.6862H183.238L183.935 42.0994H187.31L188.007 43.6862H188.958L186.074 37.3389H185.176H185.178ZM184.255 41.3731L185.622 38.2586L186.99 41.3731H184.253H184.255Z" fill="white"/>
<path d="M191.137 44.5919H191.926L194.918 36.0498H194.129L191.137 44.5919Z" fill="white"/>
<path d="M201.647 39.1438C201.284 38.9386 200.867 38.836 200.396 38.836C199.997 38.836 199.632 38.9267 199.302 39.1083C199.071 39.2366 198.884 39.4241 198.718 39.6412V36.959H197.848V43.6873H198.683V42.8938C198.85 43.1267 199.042 43.328 199.284 43.4642C199.614 43.6498 199.983 43.7405 200.396 43.7405C200.867 43.7405 201.284 43.6379 201.647 43.4326C202.01 43.2274 202.296 42.9392 202.507 42.5721C202.719 42.203 202.825 41.7748 202.825 41.2853C202.825 40.7958 202.719 40.3675 202.507 40.0024C202.296 39.6373 202.008 39.3511 201.647 39.1458V39.1438ZM201.734 42.1774C201.592 42.434 201.398 42.6313 201.154 42.7715C200.909 42.9096 200.632 42.9807 200.325 42.9807C200.017 42.9807 199.748 42.9116 199.504 42.7715C199.259 42.6313 199.065 42.434 198.923 42.1774C198.781 41.9208 198.71 41.6228 198.71 41.2853C198.71 40.9478 198.781 40.6438 198.923 40.3912C199.065 40.1406 199.259 39.9452 199.504 39.807C199.748 39.6688 200.023 39.5978 200.325 39.5978C200.627 39.5978 200.909 39.6669 201.154 39.807C201.398 39.9471 201.592 40.1406 201.734 40.3912C201.876 40.6419 201.947 40.9399 201.947 41.2853C201.947 41.6307 201.876 41.9208 201.734 42.1774Z" fill="white"/>
<path d="M205.63 42.7187L203.955 38.8779H203.049L205.168 43.672L205.015 44.0115C204.894 44.2898 204.764 44.4832 204.624 44.5917C204.484 44.7003 204.31 44.7555 204.099 44.7555C203.935 44.7555 203.781 44.7259 203.637 44.6648C203.491 44.6036 203.359 44.5167 203.238 44.4023L202.867 45.0555C203.025 45.1996 203.213 45.3101 203.43 45.3871C203.647 45.4621 203.872 45.4996 204.101 45.4996C204.349 45.4996 204.574 45.4582 204.78 45.3773C204.985 45.2963 205.174 45.1582 205.346 44.9648C205.518 44.7713 205.674 44.5049 205.814 44.1674L208.145 38.8819H207.292L205.632 42.7227L205.63 42.7187Z" fill="white"/>
<path d="M215.859 37.3389H210.609V38.1264H212.786V43.6842H213.682V38.1264H215.859V37.3389Z" fill="white"/>
<path d="M221.446 37.3389H220.457L218.697 39.7724L216.92 37.3389H215.888L218.126 40.4316L215.742 43.6842H216.784L218.663 41.0691L220.566 43.6842H221.608L219.208 40.402L221.446 37.3389Z" fill="white"/>
<path d="M221.492 38.1264H223.667V43.6842H224.565V38.1264H226.74V37.3389H221.492V38.1264Z" fill="white"/>
<path d="M231.271 38.7617C231.498 38.5445 231.766 38.3748 232.078 38.2544C232.39 38.134 232.725 38.0728 233.089 38.0728C233.452 38.0728 233.775 38.132 234.081 38.2505C234.387 38.3689 234.669 38.5544 234.93 38.809L235.492 38.2465C235.202 37.9209 234.849 37.6761 234.431 37.5123C234.014 37.3485 233.554 37.2676 233.053 37.2676C232.552 37.2676 232.104 37.3485 231.693 37.5084C231.283 37.6682 230.923 37.8952 230.619 38.1873C230.314 38.4814 230.077 38.8228 229.907 39.2156C229.737 39.6084 229.652 40.0406 229.652 40.5123C229.652 40.984 229.737 41.4162 229.907 41.809C230.077 42.2018 230.312 42.5452 230.614 42.8373C230.915 43.1314 231.273 43.3564 231.683 43.5182C232.094 43.6781 232.544 43.759 233.033 43.759C233.481 43.759 233.914 43.6899 234.334 43.5557C234.754 43.4195 235.121 43.2182 235.435 42.9537V40.4788H234.565V42.5353C234.401 42.6439 234.231 42.7347 234.052 42.7958C233.74 42.9024 233.416 42.9537 233.077 42.9537C232.714 42.9537 232.378 42.8926 232.07 42.7722C231.762 42.6518 231.494 42.4801 231.267 42.259C231.04 42.038 230.864 41.7774 230.742 41.4794C230.617 41.1794 230.556 40.8577 230.556 40.5143C230.556 40.1709 230.617 39.8393 230.742 39.5393C230.866 39.2393 231.042 38.9807 231.267 38.7636L231.271 38.7617Z" fill="white"/>
<path d="M241.07 41.4915C241.463 41.3158 241.765 41.0632 241.976 40.7356C242.187 40.406 242.294 40.0112 242.294 39.5514C242.294 39.0915 242.187 38.6968 241.976 38.3632C241.765 38.0316 241.463 37.777 241.07 37.6014C240.677 37.4257 240.203 37.3389 239.647 37.3389H237.172V43.6862H238.078V41.754H239.647C239.787 41.754 239.907 41.7323 240.038 41.7204L241.415 43.6842H242.404L240.888 41.5448C240.947 41.5231 241.017 41.5132 241.072 41.4895L241.07 41.4915ZM239.619 40.9843H238.078V38.1283H239.619C240.199 38.1283 240.64 38.2527 240.94 38.4994C241.24 38.7481 241.388 39.0974 241.388 39.5514C241.388 40.0053 241.238 40.3566 240.94 40.6073C240.64 40.8579 240.201 40.9843 239.619 40.9843Z" fill="white"/>
<path d="M249.031 38.1863C248.725 37.8923 248.37 37.6673 247.961 37.5074C247.553 37.3475 247.107 37.2666 246.623 37.2666C246.14 37.2666 245.684 37.3475 245.273 37.5113C244.863 37.6752 244.505 37.9021 244.203 38.1962C243.901 38.4903 243.665 38.8317 243.497 39.2245C243.327 39.6173 243.242 40.0475 243.242 40.5113C243.242 40.9751 243.327 41.4054 243.497 41.7982C243.667 42.1909 243.901 42.5344 244.203 42.8265C244.505 43.1205 244.865 43.3475 245.277 43.5113C245.692 43.6751 246.14 43.7561 246.623 43.7561C247.107 43.7561 247.553 43.6751 247.961 43.5153C248.37 43.3554 248.725 43.1284 249.031 42.8343C249.337 42.5422 249.572 42.1988 249.738 41.8061C249.903 41.4133 249.986 40.9811 249.986 40.5094C249.986 40.0376 249.903 39.6054 249.738 39.2126C249.572 38.8199 249.335 38.4765 249.031 38.1844V38.1863ZM248.895 41.4824C248.77 41.7784 248.599 42.037 248.378 42.258C248.157 42.4791 247.896 42.6488 247.598 42.7712C247.3 42.8916 246.974 42.9528 246.623 42.9528C246.272 42.9528 245.938 42.8916 245.64 42.7712C245.34 42.6508 245.08 42.4791 244.857 42.258C244.634 42.037 244.46 41.7784 244.336 41.4824C244.211 41.1863 244.15 40.8626 244.15 40.5113C244.15 40.16 244.213 39.8383 244.336 39.5403C244.46 39.2442 244.634 38.9857 244.857 38.7646C245.08 38.5436 245.342 38.3738 245.64 38.2515C245.94 38.1311 246.268 38.0699 246.623 38.0699C246.978 38.0699 247.298 38.1311 247.598 38.2515C247.898 38.3719 248.157 38.5436 248.378 38.7646C248.599 38.9857 248.77 39.2442 248.895 39.5403C249.019 39.8363 249.08 40.16 249.08 40.5113C249.08 40.8626 249.017 41.1863 248.895 41.4824Z" fill="white"/>
<path d="M255.808 40.9112C255.808 41.6178 255.653 42.1349 255.341 42.4625C255.029 42.7882 254.587 42.952 254.012 42.952C253.438 42.952 253.004 42.7882 252.694 42.4625C252.382 42.1369 252.226 41.6198 252.226 40.9112V37.3389H251.32V40.9468C251.32 41.8665 251.559 42.5632 252.037 43.0408C252.514 43.5185 253.17 43.7573 254.004 43.7573C254.839 43.7573 255.503 43.5185 255.976 43.0408C256.452 42.5632 256.689 41.8645 256.689 40.9468V37.3389H255.808V40.9112Z" fill="white"/>
<path d="M262.445 37.6014C262.052 37.4257 261.578 37.3389 261.022 37.3389H258.547V43.6862H259.453V41.7639H261.022C261.578 41.7639 262.052 41.675 262.445 41.4974C262.838 41.3198 263.14 41.0652 263.351 40.7356C263.562 40.406 263.669 40.0112 263.669 39.5514C263.669 39.0915 263.562 38.6968 263.351 38.3632C263.14 38.0316 262.838 37.777 262.445 37.6014ZM262.313 40.6033C262.013 40.852 261.574 40.9744 260.994 40.9744H259.453V38.1264H260.994C261.574 38.1264 262.015 38.2507 262.313 38.4974C262.613 38.7461 262.761 39.0954 262.761 39.5494C262.761 40.0033 262.611 40.3527 262.313 40.6014V40.6033Z" fill="white"/>
</svg>
